<svg width="34" height="15" viewBox="0 0 34 15" fill="none" xmlns="http://www.w3.org/2000/svg">
<path d="M33.5879 6.66544C33.9805 5.8398 34.0971 4.89587 33.9184 3.98989C33.7793 3.21937 33.4297 2.51 32.9134 1.95119C32.3971 1.39237 31.7374 1.00913 31.0173 0.849766C30.4458 0.712917 29.8525 0.717959 29.2831 0.864501C28.7137 1.01104 28.1835 1.29517 27.7333 1.69497C26.6112 2.64326 25.2142 3.14409 23.7831 3.1111H10.2169C8.78582 3.14409 7.38878 2.64326 6.26668 1.69497C5.81651 1.29517 5.28628 1.01104 4.71689 0.864501C4.14751 0.717959 3.55419 0.712917 2.98269 0.849766C2.26261 1.00913 1.60285 1.39237 1.08659 1.95119C0.570324 2.51 0.220653 3.21937 0.0816483 3.98989C-0.0970523 4.89587 0.0195463 5.8398 0.412146 6.66544C0.554439 6.96266 0.628633 7.29164 0.628633 7.62539C0.628633 7.95914 0.554439 8.28813 0.412146 8.58534C0.0203593 9.41125 -0.0962019 10.3549 0.0816483 11.2609C0.221014 12.0318 0.5707 12.7417 1.08682 13.3013C1.60293 13.861 2.26249 14.2455 2.98269 14.4066C3.55419 14.5435 4.14751 14.5384 4.71689 14.3919C5.28628 14.2453 5.81651 13.9612 6.26668 13.5614C7.38828 12.6115 8.78525 12.1087 10.2169 12.1397H23.7831C25.2148 12.1087 26.6117 12.6115 27.7333 13.5614C28.1835 13.9612 28.7137 14.2453 29.2831 14.3919C29.8525 14.5384 30.4458 14.5435 31.0173 14.4066C31.7375 14.2455 32.3971 13.861 32.9132 13.3013C33.4293 12.7417 33.779 12.0318 33.9184 11.2609C34.0962 10.3549 33.9796 9.41125 33.5879 8.58534C33.4456 8.28813 33.3714 7.95914 33.3714 7.62539C33.3714 7.29164 33.4456 6.96266 33.5879 6.66544V6.66544Z" fill="#DDCA69"/>
</svg>
